<?xml version="1.0" encoding="UTF-8"?><svg id="Capa_1" xmlns="http://www.w3.org/2000/svg" viewBox="0 0 975.64 467.52"><defs><style>.cls-1{fill:#fff;}</style></defs><g><g><path class="cls-1" d="M27,222.59V85.2h39.84V222.59H27Z"/><path class="cls-1" d="M162.86,224.63c-12.94,0-24.6-2.94-34.99-8.81-10.39-5.87-18.6-14.09-24.64-24.64-6.05-10.55-9.07-22.98-9.07-37.28s3.02-26.98,9.07-37.54c6.04-10.55,14.26-18.73,24.64-24.52,10.38-5.79,22.05-8.68,34.99-8.68,11.58,0,21.71,2.55,30.39,7.66,8.68,5.11,15.41,12.86,20.17,23.24,4.76,10.39,7.15,23.67,7.15,39.84s-2.3,29.24-6.9,39.71c-4.6,10.47-11.2,18.26-19.79,23.37-8.6,5.11-18.94,7.66-31.03,7.66Zm6.9-32.69c6.47,0,12.34-1.53,17.62-4.6,5.27-3.06,9.49-7.45,12.64-13.15,3.15-5.7,4.72-12.47,4.72-20.3s-1.58-14.81-4.72-20.43c-3.15-5.62-7.37-9.96-12.64-13.02-5.28-3.06-11.15-4.6-17.62-4.6s-12.6,1.53-17.88,4.6c-5.28,3.06-9.49,7.41-12.64,13.02-3.15,5.62-4.72,12.43-4.72,20.43s1.57,14.6,4.72,20.3c3.15,5.71,7.36,10.09,12.64,13.15,5.28,3.06,11.24,4.6,17.88,4.6Zm36.01,30.65v-28.09l.77-40.86-2.55-40.6V33.1h39.84V222.59h-38.05Z"/><path class="cls-1" d="M348.77,224.63c-15.67,0-29.41-3.06-41.24-9.19-11.83-6.13-20.98-14.51-27.45-25.15-6.47-10.64-9.7-22.77-9.7-36.39s3.19-26,9.58-36.65c6.38-10.64,15.11-18.98,26.18-25.03,11.07-6.04,23.58-9.07,37.54-9.07s25.58,2.85,36.39,8.56c10.81,5.71,19.37,13.88,25.67,24.52,6.3,10.64,9.45,23.37,9.45,38.18,0,1.53-.09,3.28-.26,5.23-.17,1.96-.34,3.79-.51,5.49h-111.6v-23.24h90.66l-15.32,6.9c0-7.15-1.45-13.36-4.34-18.64-2.9-5.27-6.9-9.4-12-12.39-5.11-2.98-11.07-4.47-17.88-4.47s-12.81,1.49-18,4.47c-5.2,2.98-9.24,7.15-12.13,12.51-2.9,5.36-4.34,11.71-4.34,19.03v6.13c0,7.49,1.66,14.09,4.98,19.79,3.32,5.71,8,10.05,14.05,13.02,6.04,2.98,13.15,4.47,21.32,4.47,7.32,0,13.75-1.1,19.28-3.32,5.53-2.21,10.6-5.53,15.19-9.96l21.2,22.98c-6.3,7.15-14.22,12.64-23.75,16.47-9.54,3.83-20.52,5.75-32.94,5.75Z"/><path class="cls-1" d="M525.23,83.15c10.89,0,20.64,2.17,29.24,6.51,8.59,4.34,15.36,10.98,20.3,19.92,4.94,8.94,7.41,20.39,7.41,34.35v78.66h-39.84v-72.53c0-11.06-2.43-19.24-7.28-24.52-4.85-5.27-11.71-7.92-20.56-7.92-6.3,0-11.96,1.32-16.98,3.96-5.02,2.64-8.94,6.68-11.75,12.13-2.81,5.45-4.21,12.43-4.21,20.94v67.93h-39.84V85.2h38.05v38.05l-7.15-11.49c4.94-9.19,12-16.26,21.2-21.2,9.19-4.94,19.66-7.41,31.41-7.41Z"/><path class="cls-1" d="M601.84,118.91v-30.65h95.25v30.65h-95.25Zm72.53,105.72c-16.18,0-28.77-4.13-37.8-12.39-9.03-8.26-13.53-20.56-13.53-36.9V54.81h39.84v120.03c0,5.79,1.53,10.26,4.6,13.41,3.06,3.15,7.23,4.72,12.51,4.72,6.3,0,11.66-1.7,16.09-5.11l10.73,28.09c-4.09,2.9-8.98,5.07-14.68,6.51-5.71,1.44-11.62,2.17-17.75,2.17Z"/><path class="cls-1" d="M712.93,118.91v-30.65h95.25v30.65h-95.25Zm21.2,103.68V82.13c0-15.49,4.6-27.88,13.79-37.16,9.19-9.28,22.3-13.92,39.33-13.92,5.79,0,11.36,.6,16.73,1.79,5.36,1.19,9.92,3.06,13.66,5.62l-10.47,28.86c-2.21-1.53-4.68-2.72-7.41-3.58-2.73-.85-5.62-1.28-8.68-1.28-5.79,0-10.26,1.66-13.41,4.98-3.15,3.32-4.72,8.3-4.72,14.94v12.77l1.02,17.11v110.32h-39.84Z"/><path class="cls-1" d="M848.02,274.17c-7.15,0-14.22-1.11-21.2-3.32-6.98-2.21-12.69-5.28-17.11-9.19l14.56-28.35c3.06,2.72,6.6,4.85,10.6,6.38,4,1.53,7.96,2.3,11.88,2.3,5.62,0,10.09-1.32,13.41-3.96,3.32-2.64,6.34-7.02,9.07-13.15l7.15-16.86,3.06-4.34,49.29-115.43h38.31l-62.06,142.75c-4.43,11.06-9.49,19.75-15.19,26.05-5.71,6.3-12,10.73-18.9,13.28-6.9,2.55-14.52,3.83-22.86,3.83Zm23.5-46.22l-61.29-139.69h41.12l47.5,111.85-27.32,27.84Z"/></g><g><path class="cls-1" d="M27,436.29v-95.85h9.17v48.05l-1.29,13.69,.9,13.69v20.41h-8.78Zm35.01,.66c-5.94,0-11.28-1.36-16.02-4.07-4.74-2.71-8.48-6.65-11.24-11.82-2.76-5.17-4.13-11.41-4.13-18.73s1.4-13.67,4.2-18.79c2.8-5.12,6.57-9.02,11.3-11.69,4.74-2.67,10.03-4,15.89-4,6.46,0,12.25,1.44,17.37,4.33,5.12,2.89,9.15,6.91,12.08,12.08,2.93,5.17,4.39,11.2,4.39,18.08s-1.47,12.81-4.39,18.02c-2.93,5.21-6.96,9.28-12.08,12.21s-10.92,4.39-17.37,4.39h0Zm-.65-8.15c4.82,0,9.13-1.1,12.92-3.29,3.79-2.2,6.8-5.3,9.04-9.3,2.24-4,3.36-8.63,3.36-13.89s-1.12-9.99-3.36-13.95c-2.24-3.96-5.25-7.04-9.04-9.24-3.79-2.2-8.1-3.29-12.92-3.29s-9.15,1.1-12.98,3.29c-3.83,2.2-6.85,5.28-9.04,9.24-2.2,3.96-3.29,8.61-3.29,13.95s1.1,9.88,3.29,13.89c2.2,4,5.21,7.1,9.04,9.3,3.83,2.2,8.16,3.29,12.98,3.29h0Z"/><path class="cls-1" d="M113.16,462c-3.19,0-6.22-.52-9.11-1.55-2.89-1.03-5.36-2.58-7.43-4.65l4.26-6.85c1.72,1.63,3.59,2.91,5.62,3.81,2.02,.9,4.28,1.36,6.78,1.36,3.01,0,5.62-.84,7.82-2.52,2.2-1.68,4.28-4.63,6.26-8.85l4.39-9.95,1.03-1.42,27.9-62.91h9.04l-33.97,75.95c-1.9,4.39-3.98,7.88-6.27,10.46-2.28,2.58-4.76,4.41-7.43,5.49-2.67,1.08-5.64,1.61-8.91,1.61l.02,.02Zm18.08-23.77l-31.26-69.75h9.56l27.64,62.26-5.94,7.49Z"/></g><path class="cls-1" d="M405.26,417.26c-4.04,0-7.88-.5-11.5-1.47-3.64-.97-6.84-2.49-9.59-4.55-2.76-2.06-5.01-4.69-6.74-7.91-1.74-3.22-2.69-7.13-2.8-11.76l56.91,.12c1.64-.07,5.87-.45,8.21-2.66,2.21-2.11,2.78-4.48,2.93-5.79,.03-.94,.05-1.9,.05-2.89,.02-8.59-1.04-16.24-3.18-22.92-2.14-6.68-5.16-12.24-9.06-16.68-3.89-4.44-8.6-7.82-14.11-10.14-5.52-2.32-11.71-3.49-18.59-3.51-8.22-.02-15.52,1.51-21.93,4.58-6.4,3.07-11.8,7.23-16.19,12.49-4.41,5.26-7.74,11.35-10.04,18.28-2.31,6.93-3.47,14.25-3.49,21.94-.02,8.36,1.17,15.87,3.59,22.56,2.41,6.68,5.93,12.37,10.56,17.07s10.32,8.31,17.05,10.83c6.72,2.52,14.46,3.79,23.22,3.81,7,.02,13.64-.52,19.9-1.6,6.27-1.07,13.26-2.56,20.55-5.92l.1-21.13c-7.34,2.89-14.89,5.15-20.8,6.06-4.41,.68-9.4,1.23-15.05,1.22v-.03Zm-28.95-53.91c.95-2.88,2.26-5.55,3.95-7.99,1.68-2.44,3.81-4.45,6.37-6.06,2.57-1.6,5.66-2.39,9.3-2.39s6.69,.79,9.19,2.33c2.48,1.55,4.46,3.55,5.94,5.99,1.47,2.45,2.51,5.11,3.12,8,.59,2.89,.89,5.75,.88,8.57l-40.39-.09c.13-2.7,.69-5.49,1.64-8.38v.02Z"/><path class="cls-1" d="M725.57,353.79c-2.42-1.29-5.49-2.55-9.19-3.78s-7.7-1.85-12.01-1.85c-4.57,0-8.05,.94-10.41,2.86-2.36,1.92-3.55,4.36-3.56,7.32,0,2.95,1.24,5.43,3.73,7.42,2.48,2,6.95,4.29,13.42,6.87,9.55,3.75,16.57,8.28,21.08,13.62,4.49,5.34,6.73,11.73,6.71,19.18-.02,10.28-3.88,18.49-11.57,24.64-7.69,6.14-18.62,9.2-32.74,9.17-6.2-.01-12.09-.67-17.67-1.96-5.59-1.3-10.27-3.04-14.03-5.24l5.7-20.59c2.96,1.67,6.9,3.29,11.82,4.84,4.9,1.55,9.71,2.33,14.42,2.34,5.25,.01,9.17-.94,11.73-2.86,2.56-1.92,3.84-4.55,3.85-7.9,0-3.33-1.12-6.03-3.4-8.1-2.3-2.05-6.52-4.37-12.72-6.96-10.48-4.13-17.89-8.9-22.18-14.3-4.3-5.41-6.45-11.06-6.43-16.97,.01-4.74,1.01-9.21,2.97-13.38,1.96-4.17,4.73-7.76,8.31-10.77,3.58-3.01,7.9-5.39,12.95-7.1,5.05-1.72,10.75-2.58,17.08-2.57,5.78,.01,11.07,.6,15.85,1.76,4.77,1.17,8.78,2.6,12.01,4.27l-5.7,20.03h-.02Z"/><path class="cls-1" d="M642.04,437.22l-29.9-.06,.25-107.3,29.9,.06-.25,107.3Z"/><path class="cls-1" d="M237.82,436.35l-29.89-.06,.25-107.3,29.89,.06-.25,107.3Z"/><path class="cls-1" d="M643.38,300.38c-.01,4.63-1.52,8.32-4.57,11.08-3.03,2.75-6.91,4.12-11.62,4.11-4.72,0-8.56-1.47-11.51-4.35-2.96-2.9-4.43-6.53-4.42-10.9,.01-4.49,1.49-8.14,4.47-10.97,2.97-2.82,6.81-4.22,11.53-4.21,4.84,0,8.74,1.43,11.71,4.26,2.94,2.84,4.42,6.5,4.41,10.99h0Z"/><path class="cls-1" d="M533.89,303.78l29.49,.06-.06,25.9,33.33,.07-.05,23.11-33.33-.07-.11,44.64c-.02,6.57,1.05,11.28,3.2,14.11,2.15,2.84,5.5,4.26,10.09,4.27,2.15,0,3.94-.08,5.35-.27,1.42-.18,2.87-.41,4.35-.67v21.5c-2.01,.76-4.44,1.46-7.94,1.91-3.5,.43-7.4,.65-11.71,.64-8.08-.02-14.34-1.47-18.78-4.38-4.43-2.9-7.69-6.4-9.77-10.52-2.07-4.12-3.31-8.39-3.7-12.83-.4-4.43-.59-8.12-.58-11.07l.23-96.41h0Z"/><path class="cls-1" d="M239.16,299.51c-.01,4.63-1.54,8.32-4.58,11.08-3.03,2.75-6.91,4.12-11.62,4.11-4.72,0-8.56-1.47-11.51-4.35-2.95-2.9-4.42-6.53-4.41-10.9,.01-4.49,1.49-8.14,4.46-10.97,2.97-2.82,6.82-4.22,11.53-4.21,4.85,0,8.75,1.43,11.71,4.26,2.95,2.84,4.43,6.5,4.42,10.99h0Z"/><path class="cls-1" d="M516.2,331.76c-2.18-1.11-4.69-2.1-7.54-2.94-1.69-.5-3.97-.94-5.32-1.15-3.22-.5-7.36-.95-13.08-.26-3.16,.38-6.12,1.11-8.83,2.23-4.17,1.72-7.75,4.09-10.71,7.11-2.96,3.01-5.25,6.6-6.87,10.77-1.04,2.67-1.71,5.49-2.09,8.4-.13,1.43-.23,2.77-.32,4.05-.17,2.57-.28,4.85-.28,6.8l-.13,56.05-.02,9.81v4.21l10.57,.02,18.92,.04,.05-19.5,.05-22.11,.06-25.09c0-.98,.05-1.91,.1-2.8,.31-4.99,1.35-8.69,3.16-11.05,2.17-2.83,5.52-4.23,10.11-4.22,2.16,0,3.94,.1,5.35,.29s2.87,.43,4.34,.69v-.06s.1,.05,.14,.08l4.72-20.03c-.73-.46-1.54-.9-2.38-1.32v-.02Z"/><path class="cls-1" d="M291.11,413.55v-.39c4.82-5.34,10.04-11.63,15.06-18.12l.03,.04,30.71-41.36,.33-.45c.48-.69,.9-1.44,1.27-2.21,.97-2.05,1.52-4.42,1.53-7.18,.02-10.21-6.82-14.61-14.29-14.62h-.36l-28.06-.06-38.14-.08-.05,22.92,38.14,.08,8.91,.02v.58c-4.86,5.57-9.72,11.34-14.79,17.88l-30.71,41.36-.33,.44c-1.76,2.5-2.79,5.59-2.8,9.39-.02,10.21,6.82,14.61,14.29,14.63l70.48,.15,.05-22.92-51.29-.11h.02Z"/></g><path class="cls-1" d="M71.73,44.37c-.02,6.91-2.37,12.42-7.04,16.54-4.66,4.11-10.62,6.15-17.86,6.14-7.25-.01-13.15-2.19-17.69-6.5-4.53-4.33-6.79-9.75-6.78-16.28,.02-6.7,2.29-12.15,6.85-16.38,4.56-4.21,10.48-6.3,17.72-6.29,7.45,.01,13.45,2.14,18,6.36,4.53,4.24,6.81,9.71,6.79,16.41h0Z"/></svg>