<?xml version="1.0" encoding="UTF-8"?><svg id="Capa_1" xmlns="http://www.w3.org/2000/svg" viewBox="0 0 1221.78 618.19"><defs><style>.cls-1{fill:#fff;}.cls-1,.cls-2{stroke-width:0px;}.cls-2{fill:#eb5b5b;}</style></defs><path class="cls-2" d="M147.71,179.61c-4.71-4.36-7.06-9.76-7.06-16.21s2.35-11.85,7.06-16.21c4.71-4.36,10.81-6.54,18.3-6.54s13.6,2.09,18.3,6.27c4.71,4.18,7.06,9.41,7.06,15.69,0,6.8-2.35,12.42-7.06,16.86-4.71,4.44-10.81,6.67-18.3,6.67s-13.59-2.18-18.3-6.54Z"/><path class="cls-1" d="M186.41,205.75h0v140.65h-40.78v-99.87c0-22.52,18.26-40.78,40.78-40.78Z"/><path class="cls-1" d="M365.18,152.42v193.99h-38.95v-16.21c-10.11,12.2-24.75,18.3-43.92,18.3-13.25,0-25.23-2.96-35.95-8.89-10.72-5.92-19.13-14.38-25.23-25.36-6.1-10.98-9.15-23.7-9.15-38.17s3.05-27.19,9.15-38.17c6.1-10.98,14.51-19.43,25.23-25.36,10.72-5.92,22.7-8.89,35.95-8.89,17.95,0,31.98,5.67,42.09,16.99v-68.24h40.78ZM314.98,304.45c6.8-7.06,10.2-16.51,10.2-28.37s-3.4-21.31-10.2-28.37c-6.8-7.06-15.34-10.59-25.62-10.59s-19.08,3.53-25.88,10.59-10.2,16.52-10.2,28.37,3.4,21.31,10.2,28.37c6.8,7.06,15.42,10.59,25.88,10.59s18.82-3.53,25.62-10.59Z"/><path class="cls-1" d="M537.11,287.58h-106.41c1.92,8.72,6.45,15.6,13.59,20.65,7.15,5.06,16.03,7.58,26.67,7.58,7.32,0,13.81-1.09,19.48-3.27,5.66-2.18,10.93-5.62,15.82-10.33l21.7,23.53c-13.25,15.16-32.59,22.75-58.04,22.75-15.86,0-29.89-3.09-42.09-9.28-12.2-6.18-21.61-14.77-28.24-25.75-6.63-10.98-9.93-23.44-9.93-37.39s3.27-26.18,9.8-37.26c6.54-11.07,15.51-19.69,26.93-25.88,11.41-6.18,24.18-9.28,38.3-9.28s26.23,2.97,37.39,8.89c11.15,5.93,19.91,14.42,26.27,25.49,6.36,11.07,9.54,23.92,9.54,38.56,0,.52-.26,4.18-.78,10.98ZM441.68,242.35c-6.27,5.23-10.11,12.38-11.5,21.44h69.28c-1.4-8.89-5.23-15.99-11.5-21.31-6.27-5.32-13.95-7.97-23.01-7.97s-16.99,2.61-23.27,7.84Z"/><path class="cls-1" d="M690.08,219.35c10.72,10.46,16.08,25.97,16.08,46.54v80.52h-40.78v-74.25c0-11.15-2.44-19.48-7.32-24.97-4.88-5.49-11.94-8.24-21.18-8.24-10.28,0-18.48,3.18-24.57,9.54-6.1,6.36-9.15,15.82-9.15,28.37v69.54h-40.78v-140.65h38.96v16.47c5.4-5.92,12.11-10.5,20.13-13.73,8.01-3.22,16.82-4.84,26.41-4.84,17.43,0,31.5,5.23,42.22,15.69Z"/><path class="cls-1" d="M816.94,340.12c-4.04,2.99-8.99,5.22-14.87,6.71-5.88,1.49-12.06,2.24-18.55,2.24-16.84,0-29.87-4.3-39.08-12.89-9.21-8.59-13.81-21.22-13.81-37.89v-124.2h41.05v34.47h35.26v31.58h-35.26v57.63c0,5.97,1.53,10.57,4.6,13.81,3.07,3.25,7.41,4.87,13.03,4.87,6.49,0,12.01-1.75,16.58-5.26l11.05,28.95Z"/><path class="cls-1" d="M889.76,208.89h56.01v31.37h-54.96v106.14h-40.78v-106.14h-21.7v-31.37h21.7v-6.27c0-16.03,4.75-28.76,14.25-38.17,9.5-9.41,22.88-14.12,40.13-14.12,6.1,0,11.89.65,17.38,1.96,5.49,1.31,10.07,3.18,13.73,5.62l-10.72,29.54c-4.71-3.31-10.2-4.97-16.47-4.97-12.38,0-18.56,6.8-18.56,20.39v6.01Z"/><path class="cls-1" d="M1041.94,208.89l-38.43,92.29-38.18-92.29h-42.04l59.57,138.56-.52,1.31c-2.79,6.27-5.93,10.76-9.41,13.46-3.49,2.7-8.02,4.05-13.6,4.05-4.01,0-8.06-.78-12.16-2.35-4.1-1.57-7.71-3.75-10.85-6.54l-14.9,29.02c4.53,4.01,10.37,7.14,17.52,9.41,7.14,2.26,14.38,3.4,21.7,3.4,13.42,0,24.88-3.31,34.38-9.93,9.5-6.63,17.47-18.04,23.92-34.25l62.19-146.15h-39.19Z"/><path class="cls-1" d="M202.33,407.32c5.6,3.13,9.99,7.54,13.16,13.23,3.17,5.69,4.76,12.18,4.76,19.46s-1.59,13.77-4.76,19.46c-3.17,5.69-7.56,10.13-13.16,13.3-5.6,3.17-11.85,4.76-18.76,4.76-6.16,0-11.69-1.31-16.59-3.92-4.9-2.61-8.84-6.39-11.83-11.34v14.56h-9.52v-103.88h9.94v44.24c3.08-4.76,7.02-8.38,11.83-10.85,4.81-2.47,10.2-3.71,16.17-3.71,6.91,0,13.16,1.56,18.76,4.69ZM196.87,465.14c4.2-2.38,7.49-5.76,9.87-10.15,2.38-4.39,3.57-9.38,3.57-14.98s-1.19-10.59-3.57-14.98c-2.38-4.39-5.67-7.77-9.87-10.15-4.2-2.38-8.87-3.57-14-3.57s-9.92,1.19-14.07,3.57c-4.15,2.38-7.42,5.76-9.8,10.15-2.38,4.39-3.57,9.38-3.57,14.98s1.19,10.59,3.57,14.98c2.38,4.39,5.65,7.77,9.8,10.15,4.15,2.38,8.84,3.57,14.07,3.57s9.8-1.19,14-3.57Z"/><path class="cls-1" d="M300.33,403.19l-36.82,82.46c-2.99,6.91-6.44,11.81-10.36,14.7-3.92,2.89-8.63,4.34-14.14,4.34-3.55,0-6.86-.56-9.94-1.68-3.08-1.12-5.74-2.8-7.98-5.04l4.62-7.42c3.73,3.73,8.21,5.6,13.44,5.6,3.36,0,6.23-.93,8.61-2.8,2.38-1.87,4.6-5.04,6.65-9.52l3.22-7.14-32.9-73.5h10.36l27.72,62.58,27.72-62.58h9.8Z"/><path class="cls-1" d="M350.87,384.99c-1.4-1.4-2.1-3.08-2.1-5.04s.7-3.5,2.1-4.9c1.4-1.4,3.13-2.1,5.18-2.1s3.78.68,5.18,2.03c1.4,1.35,2.1,2.96,2.1,4.83,0,2.05-.7,3.78-2.1,5.18-1.4,1.4-3.13,2.1-5.18,2.1s-3.78-.7-5.18-2.1ZM351.01,403.19h9.94v73.64h-9.94v-73.64Z"/><path class="cls-1" d="M440.61,468.57v8.26h-59.92v-6.58l46.34-58.66h-45.5v-8.4h58.24v6.58l-46.34,58.8h47.18Z"/><path class="cls-1" d="M523.07,443.09h-61.6c.56,7.65,3.5,13.84,8.82,18.55,5.32,4.71,12.04,7.07,20.16,7.07,4.57,0,8.77-.82,12.6-2.45,3.83-1.63,7.14-4.04,9.94-7.21l5.6,6.44c-3.27,3.92-7.35,6.91-12.25,8.96-4.9,2.05-10.29,3.08-16.17,3.08-7.56,0-14.26-1.61-20.09-4.83-5.83-3.22-10.38-7.68-13.65-13.37-3.27-5.69-4.9-12.13-4.9-19.32s1.56-13.63,4.69-19.32c3.13-5.69,7.42-10.13,12.88-13.3,5.46-3.17,11.6-4.76,18.41-4.76s12.93,1.59,18.34,4.76c5.41,3.17,9.66,7.58,12.74,13.23,3.08,5.65,4.62,12.11,4.62,19.39l-.14,3.08ZM469.66,417.96c-4.81,4.53-7.54,10.43-8.19,17.71h52.22c-.65-7.28-3.38-13.18-8.19-17.71-4.81-4.53-10.8-6.79-17.99-6.79s-13.04,2.26-17.85,6.79Z"/><path class="cls-1" d="M563.46,406.41c4.62-2.52,10.34-3.78,17.15-3.78v9.66l-2.38-.14c-7.75,0-13.81,2.38-18.2,7.14-4.39,4.76-6.58,11.43-6.58,20.02v37.52h-9.94v-73.64h9.52v14.42c2.33-4.95,5.81-8.68,10.43-11.2Z"/><path class="cls-1" d="M640.53,472.35c-1.87,1.68-4.18,2.96-6.93,3.85-2.75.89-5.62,1.33-8.61,1.33-6.91,0-12.23-1.87-15.96-5.6-3.73-3.73-5.6-9.01-5.6-15.82v-44.52h-13.16v-8.4h13.16v-16.1h9.94v16.1h22.4v8.4h-22.4v43.96c0,4.39,1.1,7.72,3.29,10.01,2.19,2.29,5.34,3.43,9.45,3.43,2.05,0,4.04-.33,5.95-.98,1.91-.65,3.57-1.59,4.97-2.8l3.5,7.14Z"/><path class="cls-1" d="M658.45,384.99c-1.4-1.4-2.1-3.08-2.1-5.04s.7-3.5,2.1-4.9c1.4-1.4,3.13-2.1,5.18-2.1s3.78.68,5.18,2.03c1.4,1.35,2.1,2.96,2.1,4.83,0,2.05-.7,3.78-2.1,5.18-1.4,1.4-3.13,2.1-5.18,2.1s-3.78-.7-5.18-2.1ZM658.59,403.19h9.94v73.64h-9.94v-73.64Z"/><path class="cls-1" d="M698.84,474.94c-5.46-1.73-9.73-3.9-12.81-6.51l4.48-7.84c3.08,2.43,6.95,4.41,11.62,5.95,4.67,1.54,9.52,2.31,14.56,2.31,6.72,0,11.69-1.05,14.91-3.15,3.22-2.1,4.83-5.06,4.83-8.89,0-2.71-.89-4.83-2.66-6.37-1.77-1.54-4.01-2.71-6.72-3.5-2.71-.79-6.3-1.56-10.78-2.31-5.97-1.12-10.78-2.26-14.42-3.43-3.64-1.17-6.74-3.15-9.31-5.95-2.57-2.8-3.85-6.67-3.85-11.62,0-6.16,2.57-11.2,7.7-15.12,5.13-3.92,12.27-5.88,21.42-5.88,4.76,0,9.52.63,14.28,1.89,4.76,1.26,8.68,2.92,11.76,4.97l-4.34,7.98c-6.07-4.2-13.3-6.3-21.7-6.3-6.35,0-11.13,1.12-14.35,3.36-3.22,2.24-4.83,5.18-4.83,8.82,0,2.8.91,5.04,2.73,6.72,1.82,1.68,4.08,2.92,6.79,3.71,2.71.79,6.44,1.61,11.2,2.45,5.88,1.12,10.59,2.24,14.14,3.36,3.55,1.12,6.58,3.03,9.1,5.74,2.52,2.71,3.78,6.44,3.78,11.2,0,6.44-2.68,11.55-8.05,15.33-5.37,3.78-12.81,5.67-22.33,5.67-5.97,0-11.69-.86-17.15-2.59Z"/></svg>